<?xml version="1.0" standalone="no"?>
<!DOCTYPE svg PUBLIC "-//W3C//DTD SVG 20010904//EN"
 "http://www.w3.org/TR/2001/REC-SVG-20010904/DTD/svg10.dtd">
<svg version="1.0" xmlns="http://www.w3.org/2000/svg"
 width="256.000000pt" height="256.000000pt" viewBox="0 0 256.000000 256.000000"
 preserveAspectRatio="xMidYMid meet">
<metadata>
Created by potrace 1.11, written by Peter Selinger 2001-2013
</metadata>
<g transform="translate(0.000000,256.000000) scale(0.100000,-0.100000)"
fill="#000000" stroke="none">
<path d="M1168 2505 c-2 -2 -25 -6 -53 -10 -82 -10 -146 -26 -215 -50 -390
-138 -676 -441 -789 -835 -45 -158 -45 -159 11 -190 24 -13 122 -75 218 -138
96 -64 254 -167 350 -230 233 -154 452 -296 467 -306 8 -4 67 50 166 151 350
359 347 355 326 409 -15 41 -76 61 -118 40 -22 -12 -353 -348 -372 -378 -6 -9
-198 113 -706 447 -83 55 -159 105 -167 110 -15 9 -14 16 3 70 117 377 467
674 857 726 121 16 306 6 414 -22 102 -26 245 -91 340 -154 145 -96 302 -286
364 -440 16 -38 32 -79 37 -90 10 -25 26 -90 33 -135 7 -48 46 -80 96 -80 48
0 74 32 72 87 -3 64 -52 215 -107 329 -136 280 -361 491 -645 604 -164 65
-282 88 -462 88 -64 0 -118 -2 -120 -3z"/>
<path d="M1232 1641 c-323 -337 -321 -334 -317 -362 7 -40 18 -58 46 -71 63
-31 64 -30 342 261 l117 123 43 -25 c58 -35 359 -233 374 -246 7 -6 15 -11 17
-11 3 0 79 -49 168 -108 90 -60 189 -125 221 -146 31 -21 57 -42 57 -47 0 -22
-63 -177 -95 -235 -152 -272 -399 -458 -707 -531 -91 -22 -348 -25 -423 -5
-27 7 -77 20 -110 29 -33 8 -96 32 -140 53 -285 136 -490 378 -570 671 -14 52
-29 105 -33 119 -8 29 -64 60 -92 53 -33 -9 -70 -53 -70 -85 0 -37 33 -165 60
-236 226 -588 843 -912 1452 -762 274 68 527 239 700 476 95 130 191 359 212
504 6 45 6 45 -36 71 -24 15 -171 111 -328 214 -157 104 -382 252 -502 331
l-216 142 -170 -177z"/>
</g>
</svg>
